<svg xmlns="http://www.w3.org/2000/svg" version="1.0" preserveAspectRatio="xMidYMid meet" viewBox="960 332.5 415 421">

<g transform="translate(0.000000,1242.000000) scale(0.100000,-0.100000)" fill="#201F73" stroke="none">
<path d="M11666 9030 c-47 -402 -180 -844 -359 -1194 l-71 -139 97 -94 c72 -69 114 -102 164 -126 64 -30 75 -32 178 -32 103 0 114 2 178 32 50 24 92 57 164 126 l97 94 -71 139 c-182 357 -294 729 -361 1204 l-8 55 -8 -65z"/>
<path d="M10340 8763 c1 -91 40 -200 93 -262 13 -14 129 -131 259 -259 l235 -233 77 93 c106 128 196 265 283 433 40 78 73 144 73 147 0 3 -44 8 -97 12 -245 17 -624 64 -819 101 -109 21 -104 22 -104 -32z"/>
<path d="M12895 8794 c-175 -35 -563 -83 -807 -100 -54 -4 -98 -9 -98 -12 0 -3 33 -69 73 -147 87 -168 177 -305 283 -433 l77 -93 236 233 c129 128 245 244 256 258 59 70 95 170 95 262 0 55 2 55 -115 32z"/>
<path d="M9850 8309 c0 -8 9 -60 20 -116 30 -157 69 -458 88 -687 l17 -206 125 63 c200 101 349 200 520 346 l35 29 -255 256 c-230 230 -262 258 -324 287 -54 25 -87 34 -148 37 -62 4 -78 2 -78 -9z"/>
<path d="M13335 8306 c-97 -31 -131 -58 -384 -313 l-255 -255 35 -30 c170 -145 319 -244 519 -345 l125 -64 7 88 c25 311 63 623 98 806 11 56 20 108 20 115 0 16 -111 15 -165 -2z"/>
<path d="M10830 7359 c-219 -112 -477 -208 -740 -274 -116 -30 -418 -85 -462 -85 -15 0 -28 -4 -28 -10 0 -5 12 -10 28 -10 44 0 306 -48 442 -81 267 -64 512 -154 752 -274 l146 -74 92 95 c173 179 210 341 121 531 -22 46 -55 89 -123 158 l-93 94 -135 -70z"/>
<path d="M12290 7334 c-173 -179 -210 -340 -121 -531 39 -81 211 -264 232 -246 32 25 291 149 418 198 162 63 291 103 461 144 136 33 398 81 442 81 16 0 28 5 28 10 0 6 -12 10 -28 10 -44 0 -306 48 -442 81 -268 64 -505 151 -748 273 l-150 75 -92 -95z"/>
<path d="M11613 7251 c-119 -30 -202 -135 -203 -256 0 -107 46 -186 140 -239 46 -26 65 -30 125 -30 60 0 79 4 125 30 186 105 189 362 5 465 -55 31 -138 44 -192 30z"/>
<path d="M9961 6511 c-15 -207 -55 -524 -87 -698 -13 -73 -24 -138 -24 -144 0 -8 23 -10 78 -7 61 3 94 12 147 37 60 28 95 58 283 244 117 117 231 233 253 258 l38 46 -87 72 c-150 124 -350 250 -516 326 l-72 33 -13 -167z"/>
<path d="M13250 6617 c-202 -103 -350 -201 -519 -345 l-35 -30 255 -255 c230 -232 260 -259 323 -288 54 -25 87 -34 148 -37 62 -4 78 -2 78 9 0 8 -9 60 -20 116 -35 183 -73 495 -98 806 l-7 88 -125 -64z"/>
<path d="M11555 6527 c-80 -27 -130 -61 -224 -152 l-95 -92 71 -139 c182 -357 294 -729 361 -1204 l8 -55 8 65 c47 402 180 844 359 1194 l71 139 -97 94 c-129 125 -192 156 -327 160 -59 2 -110 -2 -135 -10z"/>
<path d="M10672 5717 c-139 -138 -264 -271 -277 -293 -46 -77 -75 -254 -42 -254 6 0 47 7 91 15 195 37 574 84 819 101 53 4 97 8 97 11 0 12 -121 242 -167 318 -57 92 -163 237 -230 312 l-38 43 -253 -253z"/>
<path d="M12346 5878 c-106 -128 -196 -265 -283 -433 -40 -78 -73 -144 -73 -147 0 -3 44 -8 98 -12 244 -17 623 -64 818 -101 44 -8 85 -15 92 -15 31 0 2 179 -40 249 -33 54 -46 68 -299 319 l-236 233 -77 -93z"/>
</g>
</svg>