<svg xmlns="http://www.w3.org/2000/svg" version="1.0" preserveAspectRatio="xMidYMid meet" viewBox="540 410.5 1483 421">
    <g transform="translate(0.000000,1242.000000) scale(0.100000,-0.100000)" fill="#201F73" stroke="none">
        <path
            d="M7466 8250 c-47 -402 -180 -844 -359 -1194 l-71 -139 97 -94 c72 -69 114 -102 164 -126 64 -30 75 -32 178 -32 103 0 114 2 178 32 50 24 92 57 164 126 l97 94 -71 139 c-182 357 -294 729 -361 1204 l-8 55 -8 -65z">
        </path>
        <path
            d="M6140 7983 c1 -91 40 -200 93 -262 13 -14 129 -131 259 -259 l235 -233 77 93 c106 128 196 265 283 433 40 78 73 144 73 147 0 3 -44 8 -97 12 -245 17 -624 64 -819 101 -109 21 -104 22 -104 -32z">
        </path>
        <path
            d="M8695 8014 c-175 -35 -563 -83 -807 -100 -54 -4 -98 -9 -98 -12 0 -3 33 -69 73 -147 87 -168 177 -305 283 -433 l77 -93 236 233 c129 128 245 244 256 258 59 70 95 170 95 262 0 55 2 55 -115 32z">
        </path>
        <path
            d="M15379 7627 c-154 -44 -231 -161 -201 -307 7 -30 20 -66 30 -80 35 -47 103 -90 175 -110 40 -12 97 -28 127 -36 67 -19 90 -39 90 -74 0 -44 -41 -73 -108 -78 -72 -5 -126 16 -150 58 -9 16 -23 30 -31 30 -7 0 -51 -12 -97 -26 l-83 -26 15 -37 c22 -53 39 -77 78 -106 106 -81 313 -97 437 -34 95 48 149 131 149 229 -1 132 -78 200 -291 255 -125 33 -163 67 -139 124 14 35 48 51 107 51 41 0 51 -5 83 -39 l38 -39 83 20 c46 12 87 24 91 27 12 10 -27 84 -63 120 -74 74 -228 110 -340 78z">
        </path>
        <path
            d="M12470 7205 l0 -425 105 0 105 0 2 244 3 244 165 -243 165 -244 93 -1 92 0 0 425 0 425 -105 0 -105 0 -2 -244 -3 -244 -165 243 -165 244 -92 1 -93 0 0 -425z">
        </path>
        <path
            d="M13410 7206 l0 -426 105 0 105 0 0 125 0 125 63 0 c244 0 374 95 385 280 6 103 -21 173 -89 234 -79 71 -111 79 -356 84 l-213 4 0 -426z m399 210 c46 -24 64 -87 40 -140 -18 -38 -66 -56 -153 -56 l-76 0 0 105 0 105 80 0 c51 0 91 -5 109 -14z">
        </path>
        <path
            d="M14260 7345 c0 -368 11 -420 104 -502 62 -55 136 -77 256 -78 172 0 283 61 332 183 22 54 23 71 26 370 l3 312 -105 0 -106 0 0 -277 c0 -311 -3 -326 -69 -370 -71 -48 -175 -20 -213 57 -16 31 -18 68 -18 313 l0 277 -105 0 -105 0 0 -285z">
        </path>
        <path
            d="M15980 7206 l0 -426 105 0 105 0 0 125 0 125 63 0 c244 0 374 95 385 280 6 103 -21 173 -89 234 -79 71 -111 79 -356 84 l-213 4 0 -426z m399 210 c46 -24 64 -87 40 -140 -18 -38 -66 -56 -153 -56 l-76 0 0 105 0 105 80 0 c51 0 91 -5 109 -14z">
        </path>
        <path
            d="M16790 7530 l0 -100 100 0 100 0 0 -325 0 -325 105 0 105 0 0 325 0 325 100 0 100 0 0 100 0 100 -305 0 -305 0 0 -100z">
        </path>
        <path
            d="M17759 7603 c-10 -26 -254 -700 -285 -785 l-13 -38 109 0 109 0 25 78 24 77 164 3 164 2 23 -80 24 -80 109 0 c66 0 108 4 106 10 -1 5 -70 196 -153 424 l-150 416 -123 0 -122 0 -11 -27z m241 -495 c0 -5 -50 -8 -111 -8 -92 0 -110 2 -106 14 3 8 27 81 53 163 25 81 49 152 52 157 4 8 111 -304 112 -326z">
        </path>
        <path
            d="M5650 7529 c0 -8 9 -60 20 -116 30 -157 69 -458 88 -687 l17 -206 125 63 c200 101 349 200 520 346 l35 29 -255 256 c-230 230 -262 258 -324 287 -54 25 -87 34 -148 37 -62 4 -78 2 -78 -9z">
        </path>
        <path
            d="M9135 7526 c-97 -31 -131 -58 -384 -313 l-255 -255 35 -30 c170 -145 319 -244 519 -345 l125 -64 7 88 c25 311 63 623 98 806 11 56 20 108 20 115 0 16 -111 15 -165 -2z">
        </path>
        <path
            d="M6630 6579 c-219 -112 -477 -208 -740 -274 -116 -30 -418 -85 -462 -85 -15 0 -28 -4 -28 -10 0 -5 12 -10 28 -10 44 0 306 -48 442 -81 267 -64 512 -154 752 -274 l146 -74 92 95 c173 179 210 341 121 531 -22 46 -55 89 -123 158 l-93 94 -135 -70z">
        </path>
        <path
            d="M8090 6554 c-173 -179 -210 -340 -121 -531 39 -81 211 -264 232 -246 32 25 291 149 418 198 162 63 291 103 461 144 136 33 398 81 442 81 16 0 28 5 28 10 0 6 -12 10 -28 10 -44 0 -306 48 -442 81 -268 64 -505 151 -748 273 l-150 75 -92 -95z">
        </path>
        <path
            d="M7413 6471 c-119 -30 -202 -135 -203 -256 0 -107 46 -186 140 -239 46 -26 65 -30 125 -30 60 0 79 4 125 30 186 105 189 362 5 465 -55 31 -138 44 -192 30z">
        </path>
        <path
            d="M10510 6446 c0 -23 5 -25 48 -28 l47 -3 3 -147 3 -148 24 0 25 0 0 150 0 150 45 0 c41 0 45 2 45 25 l0 25 -120 0 -120 0 0 -24z">
        </path>
        <path
            d="M10878 6450 c-50 -27 -80 -73 -86 -131 -6 -64 2 -92 39 -133 117 -133 341 -36 315 137 -8 52 -55 113 -102 133 -47 20 -122 17 -166 -6z m151 -44 c100 -52 80 -197 -31 -227 -52 -14 -119 15 -143 62 -31 60 -1 144 60 169 32 14 83 11 114 -4z">
        </path>
        <path
            d="M11305 6447 c-98 -55 -115 -198 -33 -274 56 -52 135 -65 204 -34 51 23 82 66 90 125 l7 46 -87 0 c-85 0 -86 0 -86 -25 0 -24 3 -25 55 -25 38 0 55 -4 55 -13 0 -26 -32 -57 -72 -68 -81 -21 -168 38 -168 116 0 63 63 125 127 125 16 0 45 -9 65 -20 37 -19 38 -19 48 -1 16 31 12 38 -30 55 -58 23 -127 20 -175 -7z">
        </path>
        <path
            d="M11650 6295 l0 -175 100 0 100 0 0 25 c0 24 -2 25 -75 25 l-75 0 0 50 0 50 65 0 c63 0 65 1 65 25 0 24 -2 25 -65 25 l-65 0 0 50 0 50 75 0 c73 0 75 1 75 25 l0 25 -100 0 -100 0 0 -175z">
        </path>
        <path
            d="M11910 6446 c0 -23 5 -25 48 -28 l47 -3 3 -147 3 -148 24 0 25 0 0 150 0 150 45 0 c41 0 45 2 45 25 l0 25 -120 0 -120 0 0 -24z">
        </path>
        <path
            d="M12230 6295 l0 -175 25 0 c24 0 25 2 25 75 l0 75 75 0 75 0 0 -75 c0 -73 1 -75 25 -75 l25 0 0 175 0 175 -25 0 c-24 0 -25 -2 -25 -75 l0 -75 -75 0 -75 0 0 75 c0 73 -1 75 -25 75 l-25 0 0 -175z">
        </path>
        <path
            d="M12580 6295 l0 -175 100 0 100 0 0 25 c0 24 -2 25 -75 25 l-75 0 0 50 0 50 65 0 c63 0 65 1 65 25 0 24 -2 25 -65 25 l-65 0 0 50 0 50 75 0 c73 0 75 1 75 25 l0 25 -100 0 -100 0 0 -175z">
        </path>
        <path
            d="M12870 6295 l0 -175 25 0 c24 0 25 2 25 70 0 63 2 70 20 70 13 0 35 -23 67 -70 43 -62 51 -69 82 -70 25 0 31 3 24 13 -6 6 -28 37 -51 68 l-41 56 29 22 c60 44 46 147 -25 177 -19 7 -62 14 -95 14 l-60 0 0 -175z m145 100 c30 -29 31 -35 4 -69 -16 -20 -29 -26 -60 -26 l-39 0 0 60 0 60 35 0 c25 0 44 -8 60 -25z">
        </path>
        <path
            d="M13320 6446 c0 -23 5 -25 48 -28 l47 -3 3 -147 3 -148 24 0 25 0 0 150 0 150 45 0 c41 0 45 2 45 25 l0 25 -120 0 -120 0 0 -24z">
        </path>
        <path
            d="M13688 6450 c-50 -27 -80 -73 -86 -131 -6 -64 2 -92 39 -133 117 -133 341 -36 315 137 -8 52 -55 113 -102 133 -47 20 -122 17 -166 -6z m151 -44 c100 -52 80 -197 -31 -227 -52 -14 -119 15 -143 62 -31 60 -1 144 60 169 32 14 83 11 114 -4z">
        </path>
        <path
            d="M14014 6398 c13 -40 38 -119 56 -176 17 -57 33 -102 35 -100 1 2 21 46 43 98 22 52 44 93 49 91 4 -2 25 -45 47 -95 21 -50 40 -92 41 -94 2 -2 18 43 35 100 18 57 43 136 56 176 l22 72 -28 0 c-28 0 -30 -4 -55 -87 -41 -138 -36 -137 -79 -29 -21 53 -39 96 -41 96 -2 0 -20 -43 -41 -96 -43 -108 -38 -109 -79 29 -25 83 -27 87 -55 87 l-28 0 22 -72z">
        </path>
        <path
            d="M14517 6420 c-14 -30 -46 -100 -72 -155 -71 -152 -69 -145 -36 -145 20 0 31 7 39 25 11 24 16 25 97 25 82 0 86 -1 95 -25 7 -19 17 -25 39 -25 l30 0 -40 88 c-22 48 -59 128 -83 177 l-44 90 -25 -55z m80 -196 c-2 -3 -29 -4 -59 -2 l-54 3 29 65 30 65 30 -63 c16 -35 27 -65 24 -68z">
        </path>
        <path
            d="M14780 6295 l0 -175 25 0 c24 0 25 2 25 70 0 63 2 70 20 70 13 0 35 -23 67 -70 43 -62 51 -69 82 -70 25 0 31 3 24 13 -6 6 -28 37 -51 68 l-41 56 29 22 c60 44 46 147 -25 177 -19 7 -62 14 -95 14 l-60 0 0 -175z m145 100 c30 -29 31 -35 4 -69 -16 -20 -29 -26 -60 -26 l-39 0 0 60 0 60 35 0 c25 0 44 -8 60 -25z">
        </path>
        <path
            d="M15090 6295 l0 -175 73 0 c56 0 83 5 117 23 68 34 85 65 85 152 0 87 -17 118 -85 153 -34 17 -61 22 -117 22 l-73 0 0 -175z m155 111 c70 -30 97 -134 49 -188 -24 -26 -75 -48 -114 -48 l-30 0 0 125 0 125 30 0 c17 0 46 -6 65 -14z">
        </path>
        <path
            d="M15499 6455 c-35 -19 -55 -68 -43 -103 6 -19 27 -36 72 -58 35 -17 73 -41 85 -52 20 -20 20 -22 3 -41 -28 -31 -63 -34 -109 -12 -36 18 -43 19 -56 6 -34 -34 62 -84 135 -71 48 9 94 55 94 93 0 43 -24 68 -93 101 -80 38 -91 51 -71 80 18 26 60 29 93 6 21 -15 24 -15 39 0 16 16 15 19 -11 42 -33 28 -96 32 -138 9z">
        </path>
        <path
            d="M16027 6420 c-14 -30 -46 -100 -72 -155 -71 -152 -69 -145 -36 -145 20 0 31 7 39 25 11 24 16 25 97 25 82 0 86 -1 95 -25 7 -19 17 -25 39 -25 l30 0 -40 88 c-22 48 -59 128 -83 177 l-44 90 -25 -55z m80 -196 c-2 -3 -29 -4 -59 -2 l-54 3 29 65 30 65 30 -63 c16 -35 27 -65 24 -68z">
        </path>
        <path
            d="M16440 6295 l0 -175 71 0 c111 0 159 33 159 111 0 29 -37 79 -59 79 -6 0 -4 15 6 34 14 29 14 39 3 66 -17 41 -57 60 -125 60 l-55 0 0 -175z m122 108 c37 -33 16 -73 -39 -73 -32 0 -33 1 -33 45 0 42 2 45 27 45 14 0 35 -7 45 -17z m40 -140 c43 -39 4 -93 -67 -93 l-45 0 0 55 0 55 47 0 c29 0 53 -6 65 -17z">
        </path>
        <path
            d="M16750 6295 l0 -175 25 0 c24 0 25 2 25 70 0 63 2 70 20 70 13 0 35 -23 67 -70 43 -62 51 -69 82 -70 25 0 31 3 24 13 -6 6 -28 37 -51 68 l-41 56 29 22 c60 44 46 147 -25 177 -19 7 -62 14 -95 14 l-60 0 0 -175z m145 100 c30 -29 31 -35 4 -69 -16 -20 -29 -26 -60 -26 l-39 0 0 60 0 60 35 0 c25 0 44 -8 60 -25z">
        </path>
        <path d="M17070 6295 l0 -175 25 0 25 0 0 175 0 175 -25 0 -25 0 0 -175z"></path>
        <path
            d="M17285 6447 c-98 -55 -115 -198 -33 -274 56 -52 135 -65 204 -34 51 23 82 66 90 125 l7 46 -87 0 c-85 0 -86 0 -86 -25 0 -24 3 -25 55 -25 38 0 55 -4 55 -13 0 -26 -32 -57 -72 -68 -81 -21 -168 38 -168 116 0 63 63 125 127 125 16 0 45 -9 65 -20 37 -19 38 -19 48 -1 16 31 12 38 -30 55 -58 23 -127 20 -175 -7z">
        </path>
        <path
            d="M17630 6295 l0 -175 25 0 c24 0 25 2 25 75 l0 75 75 0 75 0 0 -75 c0 -73 1 -75 25 -75 l25 0 0 175 0 175 -25 0 c-24 0 -25 -2 -25 -75 l0 -75 -75 0 -75 0 0 75 c0 73 -1 75 -25 75 l-25 0 0 -175z">
        </path>
        <path
            d="M17960 6446 c0 -23 5 -25 48 -28 l47 -3 3 -147 3 -148 24 0 25 0 0 150 0 150 45 0 c41 0 45 2 45 25 l0 25 -120 0 -120 0 0 -24z">
        </path>
        <path
            d="M18430 6295 l0 -175 25 0 c24 0 25 2 25 75 l0 75 65 0 c63 0 65 1 65 25 0 24 -2 25 -65 25 l-65 0 0 50 0 50 75 0 c73 0 75 1 75 25 l0 25 -100 0 -100 0 0 -175z">
        </path>
        <path
            d="M18700 6347 c0 -140 13 -177 71 -209 60 -33 145 -8 176 53 8 15 13 70 13 152 l0 127 -25 0 -25 0 0 -124 0 -124 -32 -27 c-35 -30 -69 -28 -103 6 -17 17 -20 35 -23 144 -4 125 -4 125 -28 125 l-24 0 0 -123z">
        </path>
        <path
            d="M19030 6446 c0 -23 5 -25 48 -28 l47 -3 3 -147 3 -148 24 0 25 0 0 150 0 150 45 0 c41 0 45 2 45 25 l0 25 -120 0 -120 0 0 -24z">
        </path>
        <path
            d="M19340 6347 c0 -140 13 -177 71 -209 60 -33 145 -8 176 53 8 15 13 70 13 152 l0 127 -25 0 -25 0 0 -124 0 -124 -32 -27 c-35 -30 -69 -28 -103 6 -17 17 -20 35 -23 144 -4 125 -4 125 -28 125 l-24 0 0 -123z">
        </path>
        <path
            d="M19700 6295 l0 -175 25 0 c24 0 25 2 25 70 0 63 2 70 20 70 13 0 35 -23 67 -70 43 -62 51 -69 82 -70 25 0 31 3 24 13 -6 6 -28 37 -51 68 l-41 56 29 22 c60 44 46 147 -25 177 -19 7 -62 14 -95 14 l-60 0 0 -175z m145 100 c30 -29 31 -35 4 -69 -16 -20 -29 -26 -60 -26 l-39 0 0 60 0 60 35 0 c25 0 44 -8 60 -25z">
        </path>
        <path
            d="M20030 6295 l0 -175 100 0 100 0 0 25 c0 24 -2 25 -75 25 l-75 0 0 50 0 50 65 0 c63 0 65 1 65 25 0 24 -2 25 -65 25 l-65 0 0 50 0 50 75 0 c73 0 75 1 75 25 l0 25 -100 0 -100 0 0 -175z">
        </path>
        <path
            d="M5761 5731 c-15 -207 -55 -524 -87 -698 -13 -73 -24 -138 -24 -144 0 -8 23 -10 78 -7 61 3 94 12 147 37 60 28 95 58 283 244 117 117 231 233 253 258 l38 46 -87 72 c-150 124 -350 250 -516 326 l-72 33 -13 -167z">
        </path>
        <path
            d="M9050 5837 c-202 -103 -350 -201 -519 -345 l-35 -30 255 -255 c230 -232 260 -259 323 -288 54 -25 87 -34 148 -37 62 -4 78 -2 78 9 0 8 -9 60 -20 116 -35 183 -73 495 -98 806 l-7 88 -125 -64z">
        </path>
        <path
            d="M10587 5833 c-34 -34 -132 -33 4804 -33 4576 0 4810 1 4807 18 -3 16 -241 17 -4804 20 -2640 1 -4804 -1 -4807 -5z">
        </path>
        <path
            d="M7355 5747 c-80 -27 -130 -61 -224 -152 l-95 -92 71 -139 c182 -357 294 -729 361 -1204 l8 -55 8 65 c47 402 180 844 359 1194 l71 139 -97 94 c-129 125 -192 156 -327 160 -59 2 -110 -2 -135 -10z">
        </path>
        <path d="M13437 5583 c-15 -15 -6 -52 14 -58 28 -9 53 16 44 44 -6 20 -43 29 -58 14z"></path>
        <path d="M16317 5583 c-15 -15 -6 -52 14 -58 28 -9 53 16 44 44 -6 20 -43 29 -58 14z"></path>
        <path d="M17467 5583 c-15 -15 -6 -52 14 -58 28 -9 53 16 44 44 -6 20 -43 29 -58 14z"></path>
        <path
            d="M12600 5425 l0 -155 40 0 39 0 3 88 3 87 59 -87 c55 -81 62 -88 93 -88 l33 0 0 155 0 155 -40 0 -39 0 -3 -87 -3 -86 -58 86 c-54 82 -59 87 -92 87 l-35 0 0 -155z">
        </path>
        <path d="M14430 5425 l0 -155 35 0 35 0 0 155 0 155 -35 0 -35 0 0 -155z"></path>
        <path
            d="M14720 5425 l0 -155 35 0 c35 0 35 0 35 44 l0 43 51 7 c66 9 96 29 110 75 9 30 8 44 -5 74 -20 49 -63 67 -156 67 l-70 0 0 -155z m154 63 c17 -27 -5 -52 -48 -56 l-36 -3 0 41 0 41 36 -3 c22 -2 42 -10 48 -20z">
        </path>
        <path
            d="M13230 5515 c0 -16 -6 -25 -15 -25 -10 0 -15 -10 -15 -30 0 -19 5 -30 14 -30 10 0 15 -18 18 -65 5 -77 20 -97 75 -99 34 -1 38 2 41 24 2 18 -4 28 -20 35 -19 8 -24 19 -26 58 -3 45 -2 47 22 47 22 0 26 4 26 30 0 25 -4 30 -25 30 -20 0 -25 5 -25 25 0 22 -4 25 -35 25 -31 0 -35 -3 -35 -25z">
        </path>
        <path
            d="M17620 5515 c0 -16 -6 -25 -15 -25 -10 0 -15 -10 -15 -30 0 -19 5 -30 14 -30 10 0 15 -18 18 -65 5 -77 20 -97 75 -99 34 -1 38 2 41 24 2 18 -4 28 -20 35 -19 8 -24 19 -26 58 -3 45 -2 47 22 47 22 0 26 4 26 30 0 25 -4 30 -25 30 -20 0 -25 5 -25 25 0 22 -4 25 -35 25 -31 0 -35 -3 -35 -25z">
        </path>
        <path
            d="M12983 5486 c-55 -25 -35 -48 42 -50 29 -1 40 -6 43 -18 3 -15 -4 -18 -43 -18 -83 0 -126 -74 -68 -120 21 -16 35 -20 58 -15 16 3 51 6 78 5 l47 -1 0 89 c0 71 -4 94 -18 112 -23 28 -94 36 -139 16z m85 -138 c-3 -25 -43 -37 -61 -19 -15 15 10 41 40 41 20 0 24 -4 21 -22z">
        </path>
        <path
            d="M13613 5484 c-33 -16 -63 -66 -63 -104 0 -60 60 -120 119 -120 39 0 89 28 105 59 33 63 10 142 -49 167 -44 18 -72 17 -112 -2z m97 -75 c28 -52 -28 -102 -70 -64 -24 22 -25 43 -3 67 22 24 60 23 73 -3z">
        </path>
        <path
            d="M13956 5493 c-3 -4 -27 -6 -51 -4 l-45 2 0 -111 0 -110 35 0 35 0 0 70 c0 55 3 71 17 79 11 6 24 6 35 0 15 -8 18 -23 18 -79 l0 -70 35 0 35 0 0 80 c0 43 -5 90 -11 103 -16 36 -82 61 -103 40z">
        </path>
        <path
            d="M14193 5486 c-55 -25 -35 -48 42 -50 29 -1 40 -6 43 -18 3 -15 -4 -18 -43 -18 -83 0 -126 -74 -68 -120 21 -16 35 -20 58 -15 16 3 51 6 78 5 l47 -1 0 89 c0 71 -4 94 -18 112 -23 28 -94 36 -139 16z m85 -138 c-3 -25 -43 -37 -61 -19 -15 15 10 41 40 41 20 0 24 -4 21 -22z">
        </path>
        <path
            d="M15140 5493 c-8 -3 -23 -12 -32 -21 -16 -14 -18 -13 -18 1 0 13 -9 17 -35 17 l-35 0 0 -110 0 -110 35 0 35 0 0 56 c0 68 13 94 45 94 22 0 25 4 25 40 0 22 -1 40 -2 39 -2 0 -10 -3 -18 -6z">
        </path>
        <path
            d="M15273 5484 c-64 -32 -81 -128 -32 -181 43 -45 144 -50 178 -9 19 22 -24 48 -54 34 -29 -13 -71 -4 -79 17 -4 13 7 15 74 15 78 0 80 1 80 24 0 42 -18 75 -52 96 -39 24 -72 25 -115 4z m95 -66 c3 -15 -4 -18 -42 -18 -25 0 -46 4 -46 8 0 34 82 42 88 10z">
        </path>
        <path
            d="M16116 5493 c-3 -4 -27 -6 -51 -4 l-45 2 0 -111 0 -110 35 0 35 0 0 70 c0 55 3 71 17 79 11 6 24 6 35 0 15 -8 18 -23 18 -79 l0 -70 35 0 35 0 0 80 c0 43 -5 90 -11 103 -16 36 -82 61 -103 40z">
        </path>
        <path
            d="M16773 5484 c-64 -32 -81 -128 -32 -181 43 -45 144 -50 178 -9 19 22 -24 48 -54 34 -29 -13 -71 -4 -79 17 -4 13 7 15 74 15 78 0 80 1 80 24 0 42 -18 75 -52 96 -39 24 -72 25 -115 4z m95 -66 c3 -15 -4 -18 -42 -18 -25 0 -46 4 -46 8 0 34 82 42 88 10z">
        </path>
        <path
            d="M17140 5493 c-8 -3 -23 -12 -32 -21 -16 -14 -18 -13 -18 1 0 13 -9 17 -35 17 l-35 0 0 -110 0 -110 35 0 35 0 0 56 c0 68 13 94 45 94 22 0 25 4 25 40 0 22 -1 40 -2 39 -2 0 -10 -3 -18 -6z">
        </path>
        <path
            d="M17243 5485 c-37 -16 -51 -54 -35 -90 8 -17 26 -29 59 -38 62 -18 72 -42 14 -34 -80 10 -109 -18 -49 -49 39 -20 110 -14 138 11 24 22 26 77 4 96 -9 8 -35 19 -57 24 -22 6 -42 16 -44 22 -5 15 27 25 42 13 17 -14 65 -2 65 16 0 17 -51 44 -82 44 -13 -1 -37 -7 -55 -15z">
        </path>
        <path d="M13430 5380 l0 -110 35 0 35 0 0 110 0 110 -35 0 -35 0 0 -110z"></path>
        <path
            d="M15730 5400 c0 -84 2 -93 26 -117 20 -20 31 -24 57 -19 18 4 53 7 80 6 l47 -1 0 110 0 111 -35 0 -35 0 0 -70 c0 -60 -3 -71 -21 -80 -35 -19 -49 3 -49 81 l0 69 -35 0 -35 0 0 -90z">
        </path>
        <path d="M16310 5380 l0 -110 35 0 35 0 0 110 0 110 -35 0 -35 0 0 -110z"></path>
        <path
            d="M16444 5473 c4 -10 23 -60 43 -111 l37 -93 35 3 c38 3 32 -6 102 171 l19 47 -39 0 c-36 0 -38 -2 -50 -42 -30 -100 -31 -100 -55 -28 -22 64 -23 65 -61 68 -33 3 -37 1 -31 -15z">
        </path>
        <path d="M17460 5380 l0 -110 35 0 35 0 0 110 0 110 -35 0 -35 0 0 -110z"></path>
        <path
            d="M17790 5485 c0 -3 18 -48 40 -100 44 -103 46 -118 25 -155 -22 -39 -18 -50 18 -50 33 0 34 0 82 123 27 67 55 137 62 155 l13 32 -39 0 c-39 0 -40 -1 -56 -52 -10 -29 -21 -57 -25 -61 -4 -5 -16 18 -27 50 -19 55 -21 58 -56 61 -20 2 -37 0 -37 -3z">
        </path>
        <path d="M15510 5400 l0 -30 70 0 70 0 0 30 0 30 -70 0 -70 0 0 -30z"></path>
        <path
            d="M6472 4937 c-139 -138 -264 -271 -277 -293 -46 -77 -75 -254 -42 -254 6 0 47 7 91 15 195 37 574 84 819 101 53 4 97 8 97 11 0 12 -121 242 -167 318 -57 92 -163 237 -230 312 l-38 43 -253 -253z">
        </path>
        <path
            d="M8146 5098 c-106 -128 -196 -265 -283 -433 -40 -78 -73 -144 -73 -147 0 -3 44 -8 98 -12 244 -17 623 -64 818 -101 44 -8 85 -15 92 -15 31 0 2 179 -40 249 -33 54 -46 68 -299 319 l-236 233 -77 -93z">
        </path>
        <path
            d="M11865 5046 c-32 -14 -55 -51 -55 -90 0 -40 37 -74 96 -92 61 -17 78 -39 48 -61 -22 -16 -63 -9 -80 13 -12 16 -59 11 -70 -8 -11 -17 25 -56 62 -68 104 -35 202 31 173 117 -12 36 -38 54 -107 72 -49 14 -64 37 -37 57 19 14 55 9 66 -9 4 -5 22 -7 43 -3 33 6 35 8 24 31 -21 47 -102 68 -163 41z">
        </path>
        <path
            d="M16189 5031 c-31 -31 -36 -55 -18 -94 9 -21 7 -28 -20 -55 -80 -80 12 -179 134 -143 22 7 45 12 50 11 6 0 34 -3 63 -6 l54 -6 -38 34 c-35 33 -37 36 -26 68 14 38 15 35 -19 43 -22 6 -28 3 -32 -15 l-6 -22 -25 23 -25 23 35 33 c48 46 46 93 -7 120 -45 24 -87 19 -120 -14z m91 -50 c0 -26 -17 -44 -34 -38 -18 7 -21 38 -5 54 15 15 39 5 39 -16z m-30 -152 c29 -24 32 -31 20 -39 -22 -14 -35 -12 -60 8 -17 13 -21 24 -16 40 9 28 14 27 56 -9z">
        </path>
        <path
            d="M12760 5000 c0 -49 0 -49 -24 -39 -14 7 -40 9 -60 5 -63 -12 -100 -89 -77 -159 17 -51 45 -71 94 -70 23 1 63 2 90 2 l47 0 0 155 0 156 -35 0 -35 0 0 -50z m-16 -116 c31 -30 9 -84 -34 -84 -24 0 -50 26 -50 50 0 24 26 50 50 50 10 0 26 -7 34 -16z">
        </path>
        <path
            d="M14220 4895 l0 -155 35 0 c35 0 35 0 35 44 l0 43 51 7 c66 9 96 29 110 75 9 30 8 44 -5 74 -20 49 -63 67 -156 67 l-70 0 0 -155z m154 63 c17 -27 -5 -52 -48 -56 l-36 -3 0 41 0 41 36 -3 c22 -2 42 -10 48 -20z">
        </path>
        <path
            d="M16640 5016 c0 -33 2 -35 38 -38 l37 -3 3 -117 3 -118 34 0 35 0 0 120 0 120 35 0 c33 0 35 2 35 35 l0 35 -110 0 -110 0 0 -34z">
        </path>
        <path
            d="M17730 4895 l0 -155 35 0 35 0 0 64 c0 76 6 96 29 96 31 0 41 -22 41 -92 l0 -68 35 0 35 0 0 80 c0 43 -5 90 -11 104 -16 34 -63 53 -100 39 l-29 -11 0 49 0 49 -35 0 -35 0 0 -155z">
        </path>
        <path d="M18510 4995 c0 -52 1 -55 25 -55 24 0 25 3 25 55 0 52 -1 55 -25 55 -24 0 -25 -3 -25 -55z"></path>
        <path
            d="M12120 4985 c0 -16 -6 -25 -15 -25 -10 0 -15 -10 -15 -30 0 -19 5 -30 14 -30 10 0 15 -18 18 -65 5 -77 20 -97 75 -99 34 -1 38 2 41 24 2 18 -4 28 -20 35 -19 8 -24 19 -26 58 -3 45 -2 47 22 47 22 0 26 4 26 30 0 25 -4 30 -25 30 -20 0 -25 5 -25 25 0 22 -4 25 -35 25 -31 0 -35 -3 -35 -25z">
        </path>
        <path
            d="M13490 4985 c0 -16 -6 -25 -15 -25 -10 0 -15 -10 -15 -30 0 -19 5 -30 14 -30 10 0 15 -18 18 -65 5 -77 20 -97 75 -99 34 -1 38 2 41 24 2 18 -4 28 -20 35 -19 8 -24 19 -26 58 -3 45 -2 47 22 47 22 0 26 4 26 30 0 25 -4 30 -25 30 -20 0 -25 5 -25 25 0 22 -4 25 -35 25 -31 0 -35 -3 -35 -25z">
        </path>
        <path
            d="M15560 4985 c0 -16 -6 -25 -15 -25 -10 0 -15 -10 -15 -30 0 -19 5 -30 14 -30 10 0 15 -18 18 -65 5 -77 20 -97 75 -99 34 -1 38 2 41 24 2 18 -4 28 -20 35 -19 8 -24 19 -26 58 -3 45 -2 47 22 47 22 0 26 4 26 30 0 25 -4 30 -25 30 -20 0 -25 5 -25 25 0 22 -4 25 -35 25 -31 0 -35 -3 -35 -25z">
        </path>
        <path
            d="M12953 4954 c-64 -32 -81 -128 -32 -181 43 -45 144 -50 178 -9 19 22 -24 48 -54 34 -29 -13 -71 -4 -79 17 -4 13 7 15 74 15 78 0 80 1 80 24 0 42 -18 75 -52 96 -39 24 -72 25 -115 4z m95 -66 c3 -15 -4 -18 -42 -18 -25 0 -46 4 -46 8 0 34 82 42 88 10z">
        </path>
        <path
            d="M13296 4963 c-3 -4 -27 -6 -51 -4 l-45 2 0 -111 0 -110 35 0 35 0 0 70 c0 55 3 71 17 79 11 6 24 6 35 0 15 -8 18 -23 18 -79 l0 -70 35 0 35 0 0 80 c0 43 -5 90 -11 103 -16 36 -82 61 -103 40z">
        </path>
        <path
            d="M13713 4955 c-37 -16 -51 -54 -35 -90 8 -17 26 -29 59 -38 62 -18 72 -42 14 -34 -80 10 -109 -18 -49 -49 39 -20 110 -14 138 11 24 22 26 77 4 96 -9 8 -35 19 -57 24 -22 6 -42 16 -44 22 -5 15 27 25 42 13 17 -14 65 -2 65 16 0 17 -51 44 -82 44 -13 -1 -37 -7 -55 -15z">
        </path>
        <path
            d="M14543 4956 c-55 -25 -35 -48 42 -50 29 -1 40 -6 43 -18 3 -15 -4 -18 -43 -18 -83 0 -126 -74 -68 -120 21 -16 35 -20 58 -15 16 3 51 6 78 5 l47 -1 0 89 c0 71 -4 94 -18 112 -23 28 -94 36 -139 16z m85 -138 c-3 -25 -43 -37 -61 -19 -15 15 10 41 40 41 20 0 24 -4 21 -22z">
        </path>
        <path
            d="M14900 4963 c-8 -3 -23 -12 -32 -21 -16 -14 -18 -13 -18 1 0 13 -9 17 -35 17 l-35 0 0 -110 0 -110 35 0 35 0 0 56 c0 68 13 94 45 94 22 0 25 4 25 40 0 22 -1 40 -2 39 -2 0 -10 -3 -18 -6z">
        </path>
        <path
            d="M15023 4954 c-64 -32 -81 -128 -32 -181 43 -45 144 -50 178 -9 19 22 -24 48 -54 34 -29 -13 -71 -4 -79 17 -4 13 7 15 74 15 78 0 80 1 80 24 0 42 -18 75 -52 96 -39 24 -72 25 -115 4z m95 -66 c3 -15 -4 -18 -42 -18 -25 0 -46 4 -46 8 0 34 82 42 88 10z">
        </path>
        <path
            d="M15356 4963 c-3 -4 -27 -6 -51 -4 l-45 2 0 -111 0 -110 35 0 35 0 0 70 c0 55 3 71 17 79 11 6 24 6 35 0 15 -8 18 -23 18 -79 l0 -70 35 0 35 0 0 80 c0 43 -5 90 -11 103 -16 36 -82 61 -103 40z">
        </path>
        <path
            d="M15783 4955 c-37 -16 -51 -54 -35 -90 8 -17 26 -29 59 -38 62 -18 72 -42 14 -34 -80 10 -109 -18 -49 -49 39 -20 110 -14 138 11 24 22 26 77 4 96 -9 8 -35 19 -57 24 -22 6 -42 16 -44 22 -5 15 27 25 42 13 17 -14 65 -2 65 16 0 17 -51 44 -82 44 -13 -1 -37 -7 -55 -15z">
        </path>
        <path
            d="M16953 4954 c-64 -32 -81 -128 -32 -181 43 -45 144 -50 178 -9 19 22 -24 48 -54 34 -29 -13 -71 -4 -79 17 -4 13 7 15 74 15 78 0 80 1 80 24 0 42 -18 75 -52 96 -39 24 -72 25 -115 4z m95 -66 c3 -15 -4 -18 -42 -18 -25 0 -46 4 -46 8 0 34 82 42 88 10z">
        </path>
        <path
            d="M17223 4956 c-55 -25 -35 -48 42 -50 29 -1 40 -6 43 -18 3 -15 -4 -18 -43 -18 -83 0 -126 -74 -68 -120 21 -16 35 -20 58 -15 16 3 51 6 78 5 l47 -1 0 89 c0 71 -4 94 -18 112 -23 28 -94 36 -139 16z m85 -138 c-3 -25 -43 -37 -61 -19 -15 15 10 41 40 41 20 0 24 -4 21 -22z">
        </path>
        <path
            d="M17503 4954 c-33 -16 -63 -66 -63 -104 0 -95 113 -150 196 -95 30 20 30 27 -2 46 -21 13 -33 14 -55 6 -23 -9 -32 -8 -48 8 -12 10 -21 26 -21 35 0 9 9 25 21 35 16 16 25 17 48 8 22 -8 34 -7 55 6 32 19 33 26 1 47 -36 23 -95 27 -132 8z">
        </path>
        <path
            d="M18063 4954 c-64 -32 -81 -128 -32 -181 43 -45 144 -50 178 -9 19 22 -24 48 -54 34 -29 -13 -71 -4 -79 17 -4 13 7 15 74 15 78 0 80 1 80 24 0 42 -18 75 -52 96 -39 24 -72 25 -115 4z m95 -66 c3 -15 -4 -18 -42 -18 -25 0 -46 4 -46 8 0 34 82 42 88 10z">
        </path>
        <path
            d="M18420 4963 c-8 -3 -23 -12 -32 -21 -16 -14 -18 -13 -18 1 0 13 -9 17 -35 17 l-35 0 0 -110 0 -110 35 0 35 0 0 56 c0 68 13 94 45 94 22 0 25 4 25 40 0 22 -1 40 -2 39 -2 0 -10 -3 -18 -6z">
        </path>
        <path
            d="M18663 4955 c-37 -16 -51 -54 -35 -90 8 -17 26 -29 59 -38 62 -18 72 -42 14 -34 -80 10 -109 -18 -49 -49 39 -20 110 -14 138 11 24 22 26 77 4 96 -9 8 -35 19 -57 24 -22 6 -42 16 -44 22 -5 15 27 25 42 13 17 -14 65 -2 65 16 0 17 -51 44 -82 44 -13 -1 -37 -7 -55 -15z">
        </path>
        <path
            d="M12310 4870 c0 -84 2 -93 26 -117 20 -20 31 -24 57 -19 18 4 53 7 80 6 l47 -1 0 110 0 111 -35 0 -35 0 0 -70 c0 -60 -3 -71 -21 -80 -35 -19 -49 3 -49 81 l0 69 -35 0 -35 0 0 -90z">
        </path>
        <path d="M13924 4759 c-18 -40 -18 -42 1 -55 17 -13 21 -10 47 28 l28 43 -23 12 c-31 18 -32 17 -53 -28z"></path>
        <path d="M15447 4523 c-15 -15 -6 -52 14 -58 28 -9 53 16 44 44 -6 20 -43 29 -58 14z"></path>
        <path d="M16067 4523 c-15 -15 -6 -52 14 -58 28 -9 53 16 44 44 -6 20 -43 29 -58 14z"></path>
        <path
            d="M14135 4508 c-3 -7 -27 -76 -55 -153 -27 -76 -50 -140 -50 -142 0 -2 18 -3 39 -3 36 0 40 3 46 30 6 29 8 30 66 30 58 0 60 -1 70 -30 10 -26 16 -30 50 -30 l38 0 -35 98 c-19 53 -44 123 -56 155 l-21 57 -44 0 c-26 0 -45 -5 -48 -12z m84 -165 c1 -9 -13 -13 -38 -13 l-40 0 21 62 21 63 18 -50 c10 -28 18 -56 18 -62z">
        </path>
        <path
            d="M15860 4455 c0 -16 -6 -25 -15 -25 -10 0 -15 -10 -15 -30 0 -19 5 -30 14 -30 10 0 15 -18 18 -65 5 -77 20 -97 75 -99 34 -1 38 2 41 24 2 18 -4 28 -20 35 -19 8 -24 19 -26 58 -3 45 -2 47 22 47 22 0 26 4 26 30 0 25 -4 30 -25 30 -20 0 -25 5 -25 25 0 22 -4 25 -35 25 -31 0 -35 -3 -35 -25z">
        </path>
        <path
            d="M14423 4425 c-37 -16 -51 -54 -35 -90 8 -17 26 -29 59 -38 62 -18 72 -42 14 -34 -80 10 -109 -18 -49 -49 39 -20 110 -14 138 11 24 22 26 77 4 96 -9 8 -35 19 -57 24 -22 6 -42 16 -44 22 -5 15 27 25 42 13 17 -14 65 -2 65 16 0 17 -51 44 -82 44 -13 -1 -37 -7 -55 -15z">
        </path>
        <path
            d="M14663 4425 c-37 -16 -51 -54 -35 -90 8 -17 26 -29 59 -38 62 -18 72 -42 14 -34 -80 10 -109 -18 -49 -49 39 -20 110 -14 138 11 24 22 26 77 4 96 -9 8 -35 19 -57 24 -22 6 -42 16 -44 22 -5 15 27 25 42 13 17 -14 65 -2 65 16 0 17 -51 44 -82 44 -13 -1 -37 -7 -55 -15z">
        </path>
        <path
            d="M14933 4424 c-33 -16 -63 -66 -63 -104 0 -60 60 -120 119 -120 39 0 89 28 105 59 33 63 10 142 -49 167 -44 18 -72 17 -112 -2z m97 -75 c28 -52 -28 -102 -70 -64 -24 22 -25 43 -3 67 22 24 60 23 73 -3z">
        </path>
        <path
            d="M15223 4424 c-33 -16 -63 -66 -63 -104 0 -95 113 -150 196 -95 30 20 30 27 -2 46 -21 13 -33 14 -55 6 -23 -9 -32 -8 -48 8 -12 10 -21 26 -21 35 0 9 9 25 21 35 16 16 25 17 48 8 22 -8 34 -7 55 6 32 19 33 26 1 47 -36 23 -95 27 -132 8z">
        </path>
        <path
            d="M15623 4426 c-55 -25 -35 -48 42 -50 29 -1 40 -6 43 -18 3 -15 -4 -18 -43 -18 -83 0 -126 -74 -68 -120 21 -16 35 -20 58 -15 16 3 51 6 78 5 l47 -1 0 89 c0 71 -4 94 -18 112 -23 28 -94 36 -139 16z m85 -138 c-3 -25 -43 -37 -61 -19 -15 15 10 41 40 41 20 0 24 -4 21 -22z">
        </path>
        <path
            d="M16253 4424 c-33 -16 -63 -66 -63 -104 0 -60 60 -120 119 -120 39 0 89 28 105 59 33 63 10 142 -49 167 -44 18 -72 17 -112 -2z m97 -75 c28 -52 -28 -102 -70 -64 -24 22 -25 43 -3 67 22 24 60 23 73 -3z">
        </path>
        <path
            d="M16596 4433 c-3 -4 -27 -6 -51 -4 l-45 2 0 -111 0 -110 35 0 35 0 0 70 c0 55 3 71 17 79 11 6 24 6 35 0 15 -8 18 -23 18 -79 l0 -70 35 0 35 0 0 80 c0 43 -5 90 -11 103 -16 36 -82 61 -103 40z">
        </path>
        <path d="M15440 4320 l0 -110 35 0 35 0 0 110 0 110 -35 0 -35 0 0 -110z"></path>
        <path d="M16060 4320 l0 -110 35 0 35 0 0 110 0 110 -35 0 -35 0 0 -110z"></path>
    </g>
</svg>